<?xml version="1.0" encoding="utf-8"?>
<!-- Generator: Adobe Illustrator 21.0.0, SVG Export Plug-In . SVG Version: 6.00 Build 0)  -->
<svg version="1.1" id="Layer_1" xmlns="http://www.w3.org/2000/svg" xmlns:xlink="http://www.w3.org/1999/xlink" x="0px" y="0px"
	 viewBox="0 0 500 500" style="enable-background:new 0 0 500 500;" xml:space="preserve">
<style type="text/css">
	.st0{fill:none;}
</style>
<path class="st0" d="M203.8,283.3c-35.2,0-63.8,28.6-63.8,63.8s28.6,63.8,63.8,63.8c35.2,0,63.8-28.6,63.8-63.8
	C267.6,311.9,239,283.3,203.8,283.3z M240.9,352.4h-31.8v31.8c0,2.9-2.4,5.3-5.3,5.3s-5.3-2.4-5.3-5.3v-31.8h-31.8
	c-2.9,0-5.3-2.4-5.3-5.3s2.4-5.3,5.3-5.3h31.8v-31.8c0-2.9,2.4-5.3,5.3-5.3s5.3,2.4,5.3,5.3v31.8h31.8c2.9,0,5.3,2.4,5.3,5.3
	S243.9,352.4,240.9,352.4z"/>
<polygon class="st0" points="198.4,141.2 312.3,141.2 205.6,113.5 "/>
<polygon class="st0" points="294.9,237.3 294.9,170.9 294.9,170.9 294.9,237.2 "/>
<path class="st0" d="M93.7,367.6h38.7c-1.9-6.5-3-13.4-3-20.6c0-12.2,3-23.8,8.3-34h-30.3c-2.9,0-5.3-2.4-5.3-5.3V165.6
	c0-2.9,2.4-5.3,5.3-5.3h192.9c2.9,0,5.3,2.4,5.3,5.3v142.2c0,2.9-2.4,5.3-5.3,5.3H270c5.2,10.2,8.3,21.7,8.3,34c0,7.1-1.1,14-3,20.6
	H314V151.9H93.7V367.6z"/>
<path class="st0" d="M178.7,141.2h8.6l9.2-35.5c0.7-2.8,3.6-4.5,6.5-3.8l186.8,48.4c1.4,0.4,2.5,1.2,3.3,2.5c0.7,1.2,0.9,2.7,0.6,4
	L358,294.4c-0.6,2.4-2.8,4-5.2,4c-0.4,0-0.9-0.1-1.3-0.2l-26.8-7v56.3l26.4,6.8l54.1-208.9L191.9,90.3L178.7,141.2z"/>
<path d="M240.9,341.7h-31.8v-31.8c0-2.9-2.4-5.3-5.3-5.3s-5.3,2.4-5.3,5.3v31.8h-31.8c-2.9,0-5.3,2.4-5.3,5.3s2.4,5.3,5.3,5.3h31.8
	v31.8c0,2.9,2.4,5.3,5.3,5.3s5.3-2.4,5.3-5.3v-31.8h31.8c2.9,0,5.3-2.4,5.3-5.3S243.9,341.7,240.9,341.7z"/>
<polygon class="st0" points="324.6,222.7 324.6,229.4 324.7,229.4 324.7,222.7 "/>
<path class="st0" d="M93.7,367.6h38.7c-1.9-6.5-3-13.4-3-20.6c0-12.2,3-23.8,8.3-34h-30.3c-2.9,0-5.3-2.4-5.3-5.3V165.6
	c0-2.9,2.4-5.3,5.3-5.3h192.9c2.9,0,5.3,2.4,5.3,5.3v142.2c0,2.9-2.4,5.3-5.3,5.3H270c5.2,10.2,8.3,21.7,8.3,34c0,7.1-1.1,14-3,20.6
	H314V151.9H93.7V367.6z"/>
<path class="st0" d="M203.8,283.3c-35.2,0-63.8,28.6-63.8,63.8s28.6,63.8,63.8,63.8c35.2,0,63.8-28.6,63.8-63.8
	C267.6,311.9,239,283.3,203.8,283.3z"/>
<path class="st0" d="M144.4,302.4c13.6-18.1,35.2-29.8,59.5-29.8c24.3,0,45.9,11.8,59.5,29.8H295v-52.1l-0.1,0v-13.1l0,0v-66.4h0
	H112.7v62.2v13.4v8.1V274l0,0v28.4H144.4z"/>
<polygon class="st0" points="198.4,141.2 312.3,141.2 205.6,113.5 "/>
<path class="st0" d="M178.7,141.2h8.6l9.2-35.5c0.7-2.8,3.6-4.5,6.5-3.8l186.8,48.4c1.4,0.4,2.5,1.2,3.3,2.5c0.7,1.2,0.9,2.7,0.6,4
	L358,294.4c-0.6,2.4-2.8,4-5.2,4c-0.4,0-0.9-0.1-1.3-0.2l-26.8-7v56.3l26.4,6.8l54.1-208.9L191.9,90.3L178.7,141.2z"/>
<g>
	<path class="st0" d="M93.7,367.6h38.7c-1.9-6.5-3-13.4-3-20.6c0-12.2,3-23.8,8.3-34h-30.3c-2.9,0-5.3-2.4-5.3-5.3V165.6
		c0-2.9,2.4-5.3,5.3-5.3h192.9c2.9,0,5.3,2.4,5.3,5.3v142.2c0,2.9-2.4,5.3-5.3,5.3H270c5.2,10.2,8.3,21.7,8.3,34
		c0,7.1-1.1,14-3,20.6H314V151.9H93.7V367.6z"/>
	<polygon class="st0" points="198.4,141.2 312.3,141.2 205.6,113.5 	"/>
	<path class="st0" d="M203.8,283.3c-35.2,0-63.8,28.6-63.8,63.8s28.6,63.8,63.8,63.8c35.2,0,63.8-28.6,63.8-63.8
		C267.6,311.9,239,283.3,203.8,283.3z"/>
	<path class="st0" d="M144.4,302.4c13.6-18.1,35.2-29.8,59.5-29.8c24.3,0,45.9,11.8,59.5,29.8H295v-52.1l-0.1,0v-13.1l0,0v-66.4h0
		H112.7v62.2v13.4v8.1V274l0,0v28.4H144.4z"/>
	<path class="st0" d="M324.6,241.5v38.7l24.3,6.3l7.2-27.7l15.7-60.6l10.1-39l-57.9-15c0.3,0.7,0.5,1.5,0.5,2.3v64.2l0,0v12l0,0v6.7
		l0,0L324.6,241.5L324.6,241.5z"/>
	<path class="st0" d="M178.7,141.2h8.6l9.2-35.5c0.7-2.8,3.6-4.5,6.5-3.8l186.8,48.4c1.4,0.4,2.5,1.2,3.3,2.5c0.7,1.2,0.9,2.7,0.6,4
		L358,294.4c-0.6,2.4-2.8,4-5.2,4c-0.4,0-0.9-0.1-1.3-0.2l-26.8-7v56.3l26.4,6.8l54.1-208.9L191.9,90.3L178.7,141.2z"/>
	<path d="M413,136.6L189.4,78.7c-1.4-0.4-2.8-0.2-4,0.6c-1.2,0.7-2.1,1.9-2.5,3.3l-15.2,58.7H88.3c-2.9,0-5.3,2.4-5.3,5.3v226.4
		c0,2.9,2.4,5.3,5.3,5.3h48c11.8,25.5,37.6,43.2,67.5,43.2c29.9,0,55.7-17.7,67.5-43.2h48c2.9,0,5.3-2.4,5.3-5.3v-14.3l28.9,7.5
		c0.4,0.1,0.9,0.2,1.3,0.2c0.9,0,1.9-0.2,2.7-0.7c1.2-0.7,2.1-1.9,2.5-3.3l56.8-219.2C417.6,140.3,415.9,137.3,413,136.6z
		 M203.8,410.8c-35.2,0-63.8-28.6-63.8-63.8s28.6-63.8,63.8-63.8c35.2,0,63.8,28.6,63.8,63.8C267.6,382.2,239,410.8,203.8,410.8z
		 M112.7,274v-19.5v-8.1v-13.4v-62.2h182.2h0v66.4l0,0v13.1l0.1,0v52.1h-31.7c-13.6-18.1-35.2-29.8-59.5-29.8
		c-24.3,0-45.9,11.8-59.5,29.8h-31.7L112.7,274L112.7,274z M314,367.6h-38.6c1.9-6.5,3-13.4,3-20.6c0-12.2-3-23.8-8.3-34h30.3
		c2.9,0,5.3-2.4,5.3-5.3V165.6c0-2.9-2.4-5.3-5.3-5.3H107.4c-2.9,0-5.3,2.4-5.3,5.3v142.2c0,2.9,2.4,5.3,5.3,5.3h30.3
		c-5.3,10.2-8.3,21.7-8.3,34c0,7.1,1.1,14,3,20.6H93.7V151.9H314V367.6z M198.4,141.2l7.2-27.7l106.7,27.7H198.4z M324.6,229.4v-6.7
		l0,0v-12l0,0v-64.2c0-0.8-0.2-1.6-0.5-2.3l57.9,15l-10.1,39l-15.7,60.6l-7.2,27.7l-24.3-6.3v-38.7l0,0L324.6,229.4L324.6,229.4z
		 M351,354.5l-26.4-6.8v-56.3l26.8,7c0.4,0.1,0.9,0.2,1.3,0.2c2.4,0,4.5-1.6,5.2-4l35.7-137.7c0.4-1.4,0.1-2.8-0.6-4
		c-0.7-1.2-1.9-2.1-3.3-2.5l-186.8-48.4c-2.9-0.7-5.8,1-6.5,3.8l-9.2,35.5h-8.6l13.2-50.9l213.3,55.3L351,354.5z"/>
</g>
<path d="M213.3,233.6c1-1.3,0.9-3.1-0.4-4.2l-1-0.8c-0.6-0.5-1.4-0.8-2.2-0.7c-0.8,0.1-1.5,0.5-2.1,1.1l-11.6,14.2
	c-0.7,0.9-0.9,2.1-0.4,3.2c0.5,1.1,1.5,1.7,2.7,1.7h2.6c0.5,0,0.9,0.3,1.1,0.7c0.2,0.5,0.1,1-0.2,1.3l-3.2,3.4
	c-1.1,1.2-1.1,3.1,0.1,4.2l1,0.9c0.6,0.5,1.3,0.8,2.1,0.8c0,0,0.1,0,0.1,0c0.8,0,1.6-0.4,2.1-1l11.9-12.8c0.8-0.9,1-2.1,0.6-3.2
	c-0.5-1.1-1.5-1.8-2.8-1.8h-3.7c-0.5,0-0.9-0.3-1.1-0.7c-0.2-0.4-0.1-0.9,0.2-1.3L213.3,233.6z"/>
<path d="M269,218.3h-1.3c-1.7,0-3,1.3-3,3v1.4c0,0.7-0.6,1.2-1.2,1.2h-1.4c-0.7,0-1.2-0.6-1.2-1.2v-1.4c0-1.7-1.3-3-3-3h-1.4
	c-1.7,0-3,1.3-3,3v7c0,1.7,1.3,3,3,3h1.4c0.7,0,1.2,0.6,1.2,1.2V260c0,4-1.3,7-3.6,8.4c-1.5,0.9-3.2,0.9-4.7,0
	c-2.2-1.3-3.4-4.2-3.4-8.2c0-9-2.4-15.5-7.2-19.6c-3.3-2.8-7-3.8-9.5-4.1c-0.6-0.1-1.1-0.6-1.1-1.3v-29.4c0-1.7-1.3-3-3-3h-43.1
	c-1.7,0-3,1.3-3,3v74c0,1.7,1.3,3,3,3h1.4c1.7,0,3-1.3,3-3v-68.4c0-0.7,0.6-1.2,1.2-1.2h31.9c0.7,0,1.2,0.5,1.2,1.2v62.8
	c0,0.7-0.6,1.2-1.2,1.2h-26.3c-1.7,0-3,1.3-3,3v1.4c0,1.7,1.3,3,3,3h31.9c1.7,0,3-1.3,3-3v-34.5c0-0.4,0.2-0.7,0.5-1
	c0.3-0.2,0.7-0.3,1-0.2c1.7,0.4,3.1,1.1,4.3,2.2c3,2.6,4.6,7.3,4.6,13.9c0,6.6,2.6,11.9,7.1,14.5c3.9,2.3,8.7,2.1,12.1,0
	c4.7-2.7,7.3-8,7.3-14.7v-27.6c0-0.7,0.6-1.2,1.2-1.2h1.4c1.7,0,3-1.3,3-3v-7C272,219.6,270.6,218.3,269,218.3z"/>
</svg>
