<svg id="Layer_1" data-name="Layer 1" xmlns="http://www.w3.org/2000/svg" viewBox="0 0 200 200"><defs><style>.cls-1,.cls-2{fill:#231f20;}.cls-2{font-size:76.11px;font-family:Ionicons, Ionicons;}</style></defs><title>Artboard 1</title><path class="cls-1" d="M105.12,83.18h0l-50,0A5.33,5.33,0,0,0,51.18,85a8.87,8.87,0,0,0-1.82,3.51l-4.74,16.4-.9-.9V98.11a1.65,1.65,0,0,0-1.65-1.65H35.46a1.65,1.65,0,0,0-1.48.91L30.67,104a1.65,1.65,0,0,0,1.48,2.39H41.4l1.8,1.8-8.86,8.36a1.65,1.65,0,0,0-.52,1.21v27.16a4.25,4.25,0,0,0,3.38,4.37,1.65,1.65,0,0,0-.08.54v3.75a5.73,5.73,0,0,0,5.67,5.73H48a5.72,5.72,0,0,0,5.67-5.73v-4.19h1.39A1.65,1.65,0,0,0,57,147.72a1.62,1.62,0,0,1,1.65-1.66h0l43,0a1.61,1.61,0,0,1,1.65,1.65,1.65,1.65,0,0,0,1.84,1.66h1.52a1.66,1.66,0,0,0-.06.47v3.75a5.72,5.72,0,0,0,5.67,5.73h5.21a5.73,5.73,0,0,0,5.67-5.74v-4.35a4.41,4.41,0,0,0,3.31-4.21V117.7a1.65,1.65,0,0,0-.51-1.2l-8.82-8.42,1.74-1.74h9.25a1.65,1.65,0,0,0,1.48-2.4l-3.31-6.61a1.65,1.65,0,0,0-1.48-.92h-6.61a1.65,1.65,0,0,0-1.65,1.65V104l-.88.88-4.75-16.38A8.87,8.87,0,0,0,109.07,85,5.34,5.34,0,0,0,105.12,83.18Zm0,3.31a1.72,1.72,0,0,1,1.48.68,6,6,0,0,1,1.1,2.23l5.1,17.6a187.12,187.12,0,0,1-32.68,2.66A189.32,189.32,0,0,1,47.45,107l5.1-17.6a6,6,0,0,1,1.1-2.24,1.71,1.71,0,0,1,1.47-.68h0Zm14.69,13.24h3.94L125.4,103h-5.59Zm-83.33,0h3.94v3.31H34.83Zm77.9,10.33,8.73,8.33V145a1,1,0,0,1-1,1.09H106.28a5,5,0,0,0-4.66-3.32l-43,0A5,5,0,0,0,54,146.07H38.13a1,1,0,0,1-1-1s0-.07,0-.1V118.45l8.81-8.32A190,190,0,0,0,80.12,113,189.64,189.64,0,0,0,114.38,110.09Zm3.88,12.78h0a13.8,13.8,0,0,0-11,3.82c-2.52,2.59-3.81,6.32-3.91,10.57,0,.16,0,1.85,0,2l0,.06,1.56.06h13.23a1.65,1.65,0,0,0,1.65-1.65V124.52A1.65,1.65,0,0,0,118.26,122.87Zm-16.64,3-43,0c-1.13,0-1.92.7-1.57,1.39l4.3,8.43a1.75,1.75,0,0,0,1.57.73h34.4a1.75,1.75,0,0,0,1.57-.73l4.3-8.46C103.54,126.56,102.74,125.86,101.62,125.86Zm-59.63-3a1.65,1.65,0,0,0-1.56,1.65v13.23a1.65,1.65,0,0,0,1.65,1.65H55.32A1.65,1.65,0,0,0,57,137.79c0-4.46-1.35-8.36-4-11.06a13.79,13.79,0,0,0-11-3.82Zm74.51,3.47v9.73h-9.66a11.72,11.72,0,0,1,2.78-7.09A10,10,0,0,1,116.5,126.38Zm-72.76,0c2.9.15,5.26,1,6.88,2.64s2.48,4.15,2.78,7.11H43.74v-9.74Zm66.08,22.94h10v4.21a2.35,2.35,0,0,1-2.36,2.42h-5.21a2.35,2.35,0,0,1-2.36-2.42v-3.75A1.66,1.66,0,0,0,109.82,149.36Zm-69.44,0h10v4.19A2.35,2.35,0,0,1,48,156H42.8a2.35,2.35,0,0,1-2.36-2.42v-3.75A1.66,1.66,0,0,0,40.38,149.39Z"/><text class="cls-2" transform="translate(102.91 107.68)"></text></svg>