<svg id="Layer_1" data-name="Layer 1" xmlns="http://www.w3.org/2000/svg" viewBox="0 0 200 200"><title>Artboard 1 copy</title><path d="M158.29,65.46H41.71v-1a3.07,3.07,0,0,1,3.07-3.07H158.59a7.35,7.35,0,0,0-7.39-6.89H44.78a10,10,0,0,0-10,10v71.07a10,10,0,0,0,10,10H155.22a10,10,0,0,0,10-10V72.81C165.18,65.54,158.29,65.46,158.29,65.46Zm0,54H138.18a13.81,13.81,0,0,1-12.48-7.93h8.84a5.32,5.32,0,1,0,0-10.65h-9.29a13.81,13.81,0,0,1,12.93-9h20.11Zm0-34.47H138.18a20.68,20.68,0,0,0,0,41.36h20.11v9.15a3.07,3.07,0,0,1-3.07,3.07H44.78a3.07,3.07,0,0,1-3.07-3.07V72.81H153.77s4.6,0,4.52,4.37V85Z"/></svg>