<svg id="Layer_1" data-name="Layer 1" xmlns="http://www.w3.org/2000/svg" viewBox="0 0 270 270"><defs><style>.cls-1,.cls-2,.cls-3{fill:none;stroke:#000;stroke-miterlimit:10;}.cls-1{stroke-width:12px;}.cls-2{stroke-width:6px;}.cls-3{stroke-width:10px;}</style></defs><title>CHAdeMO</title><circle class="cls-1" cx="91.71" cy="135" r="28.32"/><circle class="cls-1" cx="178.29" cy="135" r="28.32"/><circle class="cls-2" cx="135" cy="77.38" r="19.29"/><line class="cls-2" x1="120.02" y1="63.37" x2="148.08" y2="91.43"/><line class="cls-2" x1="148.08" y1="63.37" x2="120.02" y2="91.43"/><circle class="cls-2" cx="135" cy="192.62" r="19.29"/><line class="cls-2" x1="120.02" y1="178.61" x2="148.08" y2="206.67"/><line class="cls-2" x1="148.08" y1="178.61" x2="120.02" y2="206.67"/><path class="cls-3" d="M219.82,82l9.41-16.64a4,4,0,0,0-.66-4.81L207.64,39.63a4,4,0,0,0-5-.52L186.82,49.46a100.1,100.1,0,0,0-103.65,0L67.39,39.12a4,4,0,0,0-5,.52L41.43,60.56a4,4,0,0,0-.66,4.81L50.18,82a100,100,0,1,0,169.63,0Z"/></svg>