<svg id="Layer_1" data-name="Layer 1" xmlns="http://www.w3.org/2000/svg" viewBox="0 0 270 270"><defs><style>.cls-1,.cls-2{fill:none;stroke:#000;stroke-miterlimit:10;}.cls-1{stroke-width:6px;}.cls-2{stroke-width:10px;}</style></defs><title>Combo</title><circle class="cls-1" cx="114.88" cy="66.09" r="9.83"/><circle class="cls-1" cx="155.12" cy="66.09" r="9.83"/><circle class="cls-1" cx="97.53" cy="93.88" r="14.05"/><circle class="cls-1" cx="172.47" cy="93.88" r="14.05"/><circle class="cls-1" cx="153.79" cy="127.16" r="14.05"/><circle class="cls-1" cx="116.21" cy="127.16" r="14.05"/><circle class="cls-1" cx="135" cy="93.88" r="14.05"/><path class="cls-2" d="M72.4,42.32a76.19,76.19,0,0,0-13.66,48c2.21,40.94,37,73,78,72.13a76.42,76.42,0,0,0,61-120A20,20,0,0,0,181.36,34H88.64A19.84,19.84,0,0,0,72.4,42.32Z"/><rect class="cls-2" x="59.02" y="162.5" width="151.97" height="71.5" rx="35.75" ry="35.75"/><circle class="cls-1" cx="106.65" cy="198.25" r="21.26"/><circle class="cls-1" cx="170.89" cy="198.25" r="21.26"/></svg>