<svg id="Layer_1" data-name="Layer 1" xmlns="http://www.w3.org/2000/svg" viewBox="0 0 270 270"><defs><style>.cls-1{fill:none;stroke:#000;stroke-miterlimit:10;stroke-width:10px;}</style></defs><title>Schuko-Steckdose</title><path class="cls-1" d="M234.82,121.38a100.8,100.8,0,0,0-84.76-86c0,.1,0,.2,0,.31a13.64,13.64,0,1,1-27.28,0c0-.23,0-.46,0-.69a100.78,100.78,0,0,0-87.64,86.38,13.63,13.63,0,0,0,0,27.23A100.78,100.78,0,0,0,122.82,235c0-.23,0-.46,0-.69a13.64,13.64,0,0,1,27.28,0c0,.1,0,.2,0,.31a100.8,100.8,0,0,0,84.76-86,13.63,13.63,0,0,0,0-27.23ZM95.52,154.29A19.29,19.29,0,1,1,114.81,135,19.29,19.29,0,0,1,95.52,154.29Zm79,0A19.29,19.29,0,1,1,193.78,135,19.29,19.29,0,0,1,174.48,154.29Z"/></svg>